<svg width="433" height="607" viewBox="0 0 433 607" fill="none" xmlns="http://www.w3.org/2000/svg">
<path fill-rule="evenodd" clip-rule="evenodd" d="M12 325.052V575.052H11V325.052H12Z" fill="#2A2D3C"/>
<path d="M7 324.932C7 323.551 8.11929 322.432 9.5 322.432C10.8807 322.432 12 323.551 12 324.932C12 326.313 10.8807 327.432 9.5 327.432C8.11929 327.432 7 326.313 7 324.932Z" fill="#2A2D3C"/>
<path fill-rule="evenodd" clip-rule="evenodd" d="M9.5 323.432C8.67157 323.432 8 324.103 8 324.932C8 325.76 8.67157 326.432 9.5 326.432C10.3284 326.432 11 325.76 11 324.932C11 324.103 10.3284 323.432 9.5 323.432ZM9.5 322.432C8.11929 322.432 7 323.551 7 324.932C7 326.313 8.11929 327.432 9.5 327.432C10.8807 327.432 12 326.313 12 324.932C12 323.551 10.8807 322.432 9.5 322.432Z" fill="#2A2D3C"/>
<path d="M7 575.252C7 573.871 8.11929 572.752 9.5 572.752C10.8807 572.752 12 573.871 12 575.252C12 576.633 10.8807 577.752 9.5 577.752C8.11929 577.752 7 576.633 7 575.252Z" fill="#2A2D3C"/>
<path fill-rule="evenodd" clip-rule="evenodd" d="M9.5 573.752C8.67157 573.752 8 574.423 8 575.252C8 576.08 8.67157 576.752 9.5 576.752C10.3284 576.752 11 576.08 11 575.252C11 574.423 10.3284 573.752 9.5 573.752ZM9.5 572.752C8.11929 572.752 7 573.871 7 575.252C7 576.633 8.11929 577.752 9.5 577.752C10.8807 577.752 12 576.633 12 575.252C12 573.871 10.8807 572.752 9.5 572.752Z" fill="#2A2D3C"/>
<path d="M0 304C0 303.172 0.671573 302.5 1.5 302.5C2.32843 302.5 3 303.172 3 304C3 304.828 2.32843 305.5 1.5 305.5C0.671573 305.5 0 304.828 0 304Z" fill="#2A2D3C"/>
<path fill-rule="evenodd" clip-rule="evenodd" d="M1.5 303.5C1.22386 303.5 1 303.724 1 304C1 304.276 1.22386 304.5 1.5 304.5C1.77614 304.5 2 304.276 2 304C2 303.724 1.77614 303.5 1.5 303.5ZM1.5 302.5C0.671573 302.5 0 303.172 0 304C0 304.828 0.671573 305.5 1.5 305.5C2.32843 305.5 3 304.828 3 304C3 303.172 2.32843 302.5 1.5 302.5Z" fill="#2A2D3C"/>
<path d="M6.3562 304C6.3562 302.343 7.69935 301 9.3562 301C11.0131 301 12.3562 302.343 12.3562 304C12.3562 305.657 11.0131 307 9.3562 307C7.69935 307 6.3562 305.657 6.3562 304Z" fill="#2A2D3C"/>
<path fill-rule="evenodd" clip-rule="evenodd" d="M9.3562 302C8.25164 302 7.3562 302.895 7.3562 304C7.3562 305.105 8.25164 306 9.3562 306C10.4608 306 11.3562 305.105 11.3562 304C11.3562 302.895 10.4608 302 9.3562 302ZM9.3562 301C7.69935 301 6.3562 302.343 6.3562 304C6.3562 305.657 7.69935 307 9.3562 307C11.0131 307 12.3562 305.657 12.3562 304C12.3562 302.343 11.0131 301 9.3562 301Z" fill="#2A2D3C"/>
<path d="M11.5309 314.83L9.33316 318.95L7.1977 314.83L9.33316 310.65L11.5309 314.83Z" fill="#2A2D3C"/>
<path fill-rule="evenodd" clip-rule="evenodd" d="M10.3857 314.827L9.34632 312.85L8.33635 314.827L9.34628 316.776L10.3857 314.827ZM11.5309 314.83L9.33316 310.65L7.1977 314.83L9.33316 318.95L11.5309 314.83Z" fill="#2A2D3C"/>
<path fill-rule="evenodd" clip-rule="evenodd" d="M12.089 282.948V32.9479H11.089V282.948H12.089Z" fill="#2A2D3C"/>
<path d="M7.08899 283.068C7.08899 284.449 8.20828 285.568 9.58899 285.568C10.9697 285.568 12.089 284.449 12.089 283.068C12.089 281.687 10.9697 280.568 9.58899 280.568C8.20828 280.568 7.08899 281.687 7.08899 283.068Z" fill="#2A2D3C"/>
<path fill-rule="evenodd" clip-rule="evenodd" d="M9.58899 284.568C8.76056 284.568 8.08899 283.897 8.08899 283.068C8.08899 282.24 8.76056 281.568 9.58899 281.568C10.4174 281.568 11.089 282.24 11.089 283.068C11.089 283.897 10.4174 284.568 9.58899 284.568ZM9.58899 285.568C8.20828 285.568 7.08899 284.449 7.08899 283.068C7.08899 281.687 8.20828 280.568 9.58899 280.568C10.9697 280.568 12.089 281.687 12.089 283.068C12.089 284.449 10.9697 285.568 9.58899 285.568Z" fill="#2A2D3C"/>
<path d="M7.08899 32.7481C7.08899 34.1288 8.20828 35.2481 9.58899 35.2481C10.9697 35.2481 12.089 34.1288 12.089 32.7481C12.089 31.3674 10.9697 30.2481 9.58899 30.2481C8.20828 30.2481 7.08899 31.3674 7.08899 32.7481Z" fill="#2A2D3C"/>
<path fill-rule="evenodd" clip-rule="evenodd" d="M9.58899 34.2481C8.76056 34.2481 8.08899 33.5765 8.08899 32.7481C8.08899 31.9197 8.76056 31.2481 9.58899 31.2481C10.4174 31.2481 11.089 31.9197 11.089 32.7481C11.089 33.5765 10.4174 34.2481 9.58899 34.2481ZM9.58899 35.2481C8.20828 35.2481 7.08899 34.1288 7.08899 32.7481C7.08899 31.3674 8.20828 30.2481 9.58899 30.2481C10.9697 30.2481 12.089 31.3674 12.089 32.7481C12.089 34.1288 10.9697 35.2481 9.58899 35.2481Z" fill="#2A2D3C"/>
<path d="M6.44519 304C6.44519 305.657 7.78834 307 9.44519 307C11.102 307 12.4452 305.657 12.4452 304C12.4452 302.343 11.102 301 9.44519 301C7.78834 301 6.44519 302.343 6.44519 304Z" fill="#2A2D3C"/>
<path fill-rule="evenodd" clip-rule="evenodd" d="M9.44519 306C8.34062 306 7.44519 305.105 7.44519 304C7.44519 302.895 8.34062 302 9.44519 302C10.5498 302 11.4452 302.895 11.4452 304C11.4452 305.105 10.5498 306 9.44519 306ZM9.44519 307C7.78834 307 6.44519 305.657 6.44519 304C6.44519 302.343 7.78834 301 9.44519 301C11.102 301 12.4452 302.343 12.4452 304C12.4452 305.657 11.102 307 9.44519 307Z" fill="#2A2D3C"/>
<path d="M11.6199 293.17L9.42215 289.05L7.28669 293.17L9.42215 297.35L11.6199 293.17Z" fill="#2A2D3C"/>
<path fill-rule="evenodd" clip-rule="evenodd" d="M10.4747 293.173L9.43531 295.15L8.42534 293.173L9.43527 291.224L10.4747 293.173ZM11.6199 293.17L9.42215 297.35L7.28669 293.17L9.42215 289.05L11.6199 293.17Z" fill="#2A2D3C"/>
<path fill-rule="evenodd" clip-rule="evenodd" d="M420.755 325.05V575.05H421.755V325.05H420.755Z" fill="#2A2D3C"/>
<path d="M425.755 324.93C425.755 323.549 424.636 322.43 423.255 322.43C421.875 322.43 420.755 323.549 420.755 324.93C420.755 326.311 421.875 327.43 423.255 327.43C424.636 327.43 425.755 326.311 425.755 324.93Z" fill="#2A2D3C"/>
<path fill-rule="evenodd" clip-rule="evenodd" d="M423.255 322.43C424.636 322.43 425.755 323.549 425.755 324.93C425.755 326.311 424.636 327.43 423.255 327.43C421.875 327.43 420.755 326.311 420.755 324.93C420.755 323.549 421.875 322.43 423.255 322.43Z" fill="#2A2D3C"/>
<path d="M425.755 575.25C425.755 573.869 424.636 572.75 423.255 572.75C421.875 572.75 420.755 573.869 420.755 575.25C420.755 576.631 421.875 577.75 423.255 577.75C424.636 577.75 425.755 576.631 425.755 575.25Z" fill="#2A2D3C"/>
<path fill-rule="evenodd" clip-rule="evenodd" d="M423.255 572.75C424.636 572.75 425.755 573.869 425.755 575.25C425.755 576.631 424.636 577.75 423.255 577.75C421.875 577.75 420.755 576.631 420.755 575.25C420.755 573.869 421.875 572.75 423.255 572.75Z" fill="#2A2D3C"/>
<path d="M432.755 303.998C432.755 303.17 432.084 302.498 431.255 302.498C430.427 302.498 429.755 303.17 429.755 303.998C429.755 304.827 430.427 305.498 431.255 305.498C432.084 305.498 432.755 304.827 432.755 303.998Z" fill="#2A2D3C"/>
<path fill-rule="evenodd" clip-rule="evenodd" d="M431.255 302.498C432.084 302.498 432.755 303.17 432.755 303.998C432.755 304.827 432.084 305.498 431.255 305.498C430.427 305.498 429.755 304.827 429.755 303.998C429.755 303.17 430.427 302.498 431.255 302.498Z" fill="#2A2D3C"/>
<path d="M426.399 303.998C426.399 302.341 425.056 300.998 423.399 300.998C421.742 300.998 420.399 302.341 420.399 303.998C420.399 305.655 421.742 306.998 423.399 306.998C425.056 306.998 426.399 305.655 426.399 303.998Z" fill="#2A2D3C"/>
<path fill-rule="evenodd" clip-rule="evenodd" d="M423.399 301.998C424.504 301.998 425.399 302.894 425.399 303.998C425.399 305.103 424.504 305.998 423.399 305.998C422.295 305.998 421.399 305.103 421.399 303.998C421.399 302.894 422.295 301.998 423.399 301.998ZM423.399 300.998C425.056 300.998 426.399 302.341 426.399 303.998C426.399 305.655 425.056 306.998 423.399 306.998C421.742 306.998 420.399 305.655 420.399 303.998C420.399 302.341 421.742 300.998 423.399 300.998Z" fill="#2A2D3C"/>
<path d="M421.224 314.828L423.422 318.948L425.558 314.828L423.422 310.648L421.224 314.828Z" fill="#2A2D3C"/>
<path fill-rule="evenodd" clip-rule="evenodd" d="M421.224 314.828L423.422 310.648L425.558 314.828L423.422 318.948L421.224 314.828Z" fill="#2A2D3C"/>
<path fill-rule="evenodd" clip-rule="evenodd" d="M420.666 282.946V32.946H421.666V282.946H420.666Z" fill="#2A2D3C"/>
<path d="M425.666 283.066C425.666 284.447 424.547 285.566 423.166 285.566C421.786 285.566 420.666 284.447 420.666 283.066C420.666 281.686 421.786 280.566 423.166 280.566C424.547 280.566 425.666 281.686 425.666 283.066Z" fill="#2A2D3C"/>
<path fill-rule="evenodd" clip-rule="evenodd" d="M423.166 285.566C424.547 285.566 425.666 284.447 425.666 283.066C425.666 281.686 424.547 280.566 423.166 280.566C421.786 280.566 420.666 281.686 420.666 283.066C420.666 284.447 421.786 285.566 423.166 285.566Z" fill="#2A2D3C"/>
<path d="M425.666 32.7462C425.666 34.1269 424.547 35.2462 423.166 35.2462C421.786 35.2462 420.666 34.1269 420.666 32.7462C420.666 31.3655 421.786 30.2462 423.166 30.2462C424.547 30.2462 425.666 31.3655 425.666 32.7462Z" fill="#2A2D3C"/>
<path fill-rule="evenodd" clip-rule="evenodd" d="M423.166 35.2462C424.547 35.2462 425.666 34.1269 425.666 32.7462C425.666 31.3655 424.547 30.2462 423.166 30.2462C421.786 30.2462 420.666 31.3655 420.666 32.7462C420.666 34.1269 421.786 35.2462 423.166 35.2462Z" fill="#2A2D3C"/>
<path d="M426.31 303.998C426.31 305.655 424.967 306.998 423.31 306.998C421.653 306.998 420.31 305.655 420.31 303.998C420.31 302.341 421.653 300.998 423.31 300.998C424.967 300.998 426.31 302.341 426.31 303.998Z" fill="#2A2D3C"/>
<path fill-rule="evenodd" clip-rule="evenodd" d="M423.31 306.998C424.967 306.998 426.31 305.655 426.31 303.998C426.31 302.341 424.967 300.998 423.31 300.998C421.653 300.998 420.31 302.341 420.31 303.998C420.31 305.655 421.653 306.998 423.31 306.998Z" fill="#2A2D3C"/>
<path d="M421.135 293.168L423.333 289.048L425.469 293.168L423.333 297.348L421.135 293.168Z" fill="#2A2D3C"/>
<path fill-rule="evenodd" clip-rule="evenodd" d="M421.135 293.168L423.333 297.348L425.469 293.168L423.333 289.048L421.135 293.168Z" fill="#2A2D3C"/>
<path fill-rule="evenodd" clip-rule="evenodd" d="M236.93 12.2446H386.93L385.2 11.2446H236.93V12.2446Z" fill="#2A2D3C"/>
<path d="M236.809 7.24463C235.429 7.24463 234.309 8.36392 234.309 9.74463C234.309 11.1253 235.429 12.2446 236.809 12.2446C238.19 12.2446 239.309 11.1253 239.309 9.74463C239.309 8.36392 238.19 7.24463 236.809 7.24463Z" fill="#2A2D3C"/>
<path fill-rule="evenodd" clip-rule="evenodd" d="M234.309 9.74463C234.309 8.36392 235.429 7.24463 236.809 7.24463C238.19 7.24463 239.309 8.36392 239.309 9.74463C239.309 11.1253 238.19 12.2446 236.809 12.2446C235.429 12.2446 234.309 11.1253 234.309 9.74463Z" fill="#2A2D3C"/>
<path d="M387.13 7.24463C385.749 7.24463 384.63 8.36392 384.63 9.74463C384.63 11.1253 385.749 12.2446 387.13 12.2446C388.51 12.2446 389.63 11.1253 389.63 9.74463C389.63 8.36392 388.51 7.24463 387.13 7.24463Z" fill="#2A2D3C"/>
<path fill-rule="evenodd" clip-rule="evenodd" d="M384.63 9.74463C384.63 8.36392 385.749 7.24463 387.13 7.24463C388.51 7.24463 389.63 8.36392 389.63 9.74463C389.63 11.1253 388.51 12.2446 387.13 12.2446C385.749 12.2446 384.63 11.1253 384.63 9.74463Z" fill="#2A2D3C"/>
<path d="M215.878 0.244629C215.049 0.244629 214.378 0.916202 214.378 1.74463C214.378 2.57306 215.049 3.24463 215.878 3.24463C216.706 3.24463 217.378 2.57306 217.378 1.74463C217.378 0.916202 216.706 0.244629 215.878 0.244629Z" fill="#2A2D3C"/>
<path fill-rule="evenodd" clip-rule="evenodd" d="M214.378 1.74463C214.378 0.916202 215.049 0.244629 215.878 0.244629C216.706 0.244629 217.378 0.916202 217.378 1.74463C217.378 2.57306 216.706 3.24463 215.878 3.24463C215.049 3.24463 214.378 2.57306 214.378 1.74463Z" fill="#2A2D3C"/>
<path d="M215.878 6.60083C214.221 6.60083 212.878 7.94398 212.878 9.60083C212.878 11.2577 214.221 12.6008 215.878 12.6008C217.535 12.6008 218.878 11.2577 218.878 9.60083C218.878 7.94398 217.535 6.60083 215.878 6.60083Z" fill="#2A2D3C"/>
<path fill-rule="evenodd" clip-rule="evenodd" d="M212.878 9.60083C212.878 7.94398 214.221 6.60083 215.878 6.60083C217.535 6.60083 218.878 7.94398 218.878 9.60083C218.878 11.2577 217.535 12.6008 215.878 12.6008C214.221 12.6008 212.878 11.2577 212.878 9.60083Z" fill="#2A2D3C"/>
<path d="M226.708 11.7756L230.828 9.57779L226.708 7.44233L222.528 9.57779L226.708 11.7756Z" fill="#2A2D3C"/>
<path fill-rule="evenodd" clip-rule="evenodd" d="M226.708 11.7756L222.528 9.57779L226.708 7.44233L230.828 9.57779L226.708 11.7756Z" fill="#2A2D3C"/>
<path fill-rule="evenodd" clip-rule="evenodd" d="M194.826 12.3336H44.8255V11.3336H194.826V12.3336Z" fill="#2A2D3C"/>
<path d="M194.946 7.33362C196.327 7.33362 197.446 8.45291 197.446 9.83362C197.446 11.2143 196.327 12.3336 194.946 12.3336C193.565 12.3336 192.446 11.2143 192.446 9.83362C192.446 8.45291 193.565 7.33362 194.946 7.33362Z" fill="#2A2D3C"/>
<path fill-rule="evenodd" clip-rule="evenodd" d="M197.446 9.83362C197.446 8.45291 196.327 7.33362 194.946 7.33362C193.565 7.33362 192.446 8.45291 192.446 9.83362C192.446 11.2143 193.565 12.3336 194.946 12.3336C196.327 12.3336 197.446 11.2143 197.446 9.83362Z" fill="#2A2D3C"/>
<path d="M44.6257 7.33362C46.0064 7.33362 47.1257 8.45291 47.1257 9.83362C47.1257 11.2143 46.0064 12.3336 44.6257 12.3336C43.245 12.3336 42.1257 11.2143 42.1257 9.83362C42.1257 8.45291 43.245 7.33362 44.6257 7.33362Z" fill="#2A2D3C"/>
<path fill-rule="evenodd" clip-rule="evenodd" d="M47.1257 9.83362C47.1257 8.45291 46.0064 7.33362 44.6257 7.33362C43.245 7.33362 42.1257 8.45291 42.1257 9.83362C42.1257 11.2143 43.245 12.3336 44.6257 12.3336C46.0064 12.3336 47.1257 11.2143 47.1257 9.83362Z" fill="#2A2D3C"/>
<path d="M215.878 6.68982C217.535 6.68982 218.878 8.03297 218.878 9.68982C218.878 11.3467 217.535 12.6898 215.878 12.6898C214.221 12.6898 212.878 11.3467 212.878 9.68982C212.878 8.03297 214.221 6.68982 215.878 6.68982Z" fill="#2A2D3C"/>
<path fill-rule="evenodd" clip-rule="evenodd" d="M218.878 9.68982C218.878 8.03297 217.535 6.68982 215.878 6.68982C214.221 6.68982 212.878 8.03297 212.878 9.68982C212.878 11.3467 214.221 12.6898 215.878 12.6898C217.535 12.6898 218.878 11.3467 218.878 9.68982Z" fill="#2A2D3C"/>
<path d="M205.048 11.8645L200.927 9.66678L205.048 7.53132L209.228 9.66678L205.048 11.8645Z" fill="#2A2D3C"/>
<path fill-rule="evenodd" clip-rule="evenodd" d="M205.048 11.8645L209.228 9.66678L205.048 7.53132L200.927 9.66678L205.048 11.8645Z" fill="#2A2D3C"/>
<path fill-rule="evenodd" clip-rule="evenodd" d="M236.93 594.755H386.93V595.755L238.5 595.5L236.93 594.755Z" fill="#2A2D3C"/>
<path d="M236.809 599.755C235.429 599.755 234.309 598.636 234.309 597.255C234.309 595.875 235.429 594.755 236.809 594.755C238.19 594.755 239.309 595.875 239.309 597.255C239.309 598.636 238.19 599.755 236.809 599.755Z" fill="#2A2D3C"/>
<path fill-rule="evenodd" clip-rule="evenodd" d="M234.309 597.255C234.309 598.636 235.429 599.755 236.809 599.755C238.19 599.755 239.309 598.636 239.309 597.255C239.309 595.875 238.19 594.755 236.809 594.755C235.429 594.755 234.309 595.875 234.309 597.255Z" fill="#2A2D3C"/>
<path d="M387.13 599.755C385.749 599.755 384.63 598.636 384.63 597.255C384.63 595.875 385.749 594.755 387.13 594.755C388.51 594.755 389.63 595.875 389.63 597.255C389.63 598.636 388.51 599.755 387.13 599.755Z" fill="#2A2D3C"/>
<path fill-rule="evenodd" clip-rule="evenodd" d="M384.63 597.255C384.63 598.636 385.749 599.755 387.13 599.755C388.51 599.755 389.63 598.636 389.63 597.255C389.63 595.875 388.51 594.755 387.13 594.755C385.749 594.755 384.63 595.875 384.63 597.255Z" fill="#2A2D3C"/>
<path d="M215.878 606.755C215.049 606.755 214.378 606.084 214.378 605.255C214.378 604.427 215.049 603.755 215.878 603.755C216.706 603.755 217.378 604.427 217.378 605.255C217.378 606.084 216.706 606.755 215.878 606.755Z" fill="#2A2D3C"/>
<path fill-rule="evenodd" clip-rule="evenodd" d="M214.378 605.255C214.378 606.084 215.049 606.755 215.878 606.755C216.706 606.755 217.378 606.084 217.378 605.255C217.378 604.427 216.706 603.755 215.878 603.755C215.049 603.755 214.378 604.427 214.378 605.255Z" fill="#2A2D3C"/>
<path d="M215.878 600.399C214.221 600.399 212.878 599.056 212.878 597.399C212.878 595.742 214.221 594.399 215.878 594.399C217.535 594.399 218.878 595.742 218.878 597.399C218.878 599.056 217.535 600.399 215.878 600.399Z" fill="#2A2D3C"/>
<path fill-rule="evenodd" clip-rule="evenodd" d="M212.878 597.399C212.878 599.056 214.221 600.399 215.878 600.399C217.535 600.399 218.878 599.056 218.878 597.399C218.878 595.742 217.535 594.399 215.878 594.399C214.221 594.399 212.878 595.742 212.878 597.399Z" fill="#2A2D3C"/>
<path d="M226.708 595.225L230.828 597.422L226.708 599.558L222.528 597.422L226.708 595.225Z" fill="#2A2D3C"/>
<path fill-rule="evenodd" clip-rule="evenodd" d="M226.708 595.225L222.528 597.422L226.708 599.558L230.828 597.422L226.708 595.225Z" fill="#2A2D3C"/>
<path fill-rule="evenodd" clip-rule="evenodd" d="M194.826 594.666H44.8255L46.1257 595.334L194.826 595.666V594.666Z" fill="#2A2D3C"/>
<path d="M194.946 599.666C196.327 599.666 197.446 598.547 197.446 597.166C197.446 595.786 196.327 594.666 194.946 594.666C193.565 594.666 192.446 595.786 192.446 597.166C192.446 598.547 193.565 599.666 194.946 599.666Z" fill="#2A2D3C"/>
<path fill-rule="evenodd" clip-rule="evenodd" d="M197.446 597.166C197.446 598.547 196.327 599.666 194.946 599.666C193.565 599.666 192.446 598.547 192.446 597.166C192.446 595.786 193.565 594.666 194.946 594.666C196.327 594.666 197.446 595.786 197.446 597.166Z" fill="#2A2D3C"/>
<path d="M44.6257 599.666C46.0064 599.666 47.1257 598.547 47.1257 597.166C47.1257 595.786 46.0064 594.666 44.6257 594.666C43.245 594.666 42.1257 595.786 42.1257 597.166C42.1257 598.547 43.245 599.666 44.6257 599.666Z" fill="#2A2D3C"/>
<path fill-rule="evenodd" clip-rule="evenodd" d="M47.1257 597.166C47.1257 598.547 46.0064 599.666 44.6257 599.666C43.245 599.666 42.1257 598.547 42.1257 597.166C42.1257 595.786 43.245 594.666 44.6257 594.666C46.0064 594.666 47.1257 595.786 47.1257 597.166Z" fill="#2A2D3C"/>
<path d="M205.048 595.136L200.927 597.333L205.048 599.469L209.228 597.333L205.048 595.136Z" fill="#2A2D3C"/>
<path fill-rule="evenodd" clip-rule="evenodd" d="M205.048 595.136L209.228 597.333L205.048 599.469L200.927 597.333L205.048 595.136Z" fill="#2A2D3C"/>
</svg>
