<svg width="268" height="781" viewBox="0 0 268 781" fill="none" xmlns="http://www.w3.org/2000/svg">
<g filter="url(#filter0_d_1_12)">
<path d="M12 6C12 6 67.5 77.5 67.5 103C67.5 128.5 67.5 251 67.5 251C67.5 283.5 65 300.5 121.5 300.5C178 300.5 168.5 329 168.5 361V461.5V573.5C168.5 594 184 612.5 215 612.5C246 612.5 253 612 253 651V772.5" stroke="#DF1E44" stroke-width="18"/>
</g>
<g filter="url(#filter1_d_1_12)">
<rect x="101" y="373" width="141" height="166" fill="white"/>
<rect x="102" y="374" width="139" height="164" stroke="black" stroke-width="2"/>
</g>
<g filter="url(#filter2_d_1_12)">
<path d="M142.88 509.71C140.086 513.222 137.021 515.032 133.685 515.138C132.494 515.172 131.157 514.905 129.674 514.34C128.192 513.774 126.606 512.819 124.916 511.474C123.226 510.129 121.93 508.654 121.03 507.049C120.126 505.409 119.689 503.819 119.718 502.279C119.827 499.329 120.927 496.539 123.018 493.909C123.616 493.158 124.265 492.478 124.964 491.869C125.644 491.245 126.192 490.807 126.608 490.554L127.208 490.204L127.423 490.513C125.9 491.387 124.525 492.594 123.3 494.134C121.716 496.124 121.042 498.302 121.277 500.667C121.428 502.443 122.269 504.277 123.8 506.17C124.657 507.25 125.846 508.396 127.368 509.606C128.889 510.817 130.469 511.721 132.109 512.32C133.73 512.904 135.067 513.171 136.12 513.119C137.188 513.049 138.224 512.768 139.227 512.278C140.211 511.773 140.918 511.309 141.348 510.884C141.778 510.459 142.255 509.918 142.777 509.261C143.315 508.585 143.855 507.772 144.396 506.822C144.937 505.872 145.323 505.137 145.553 504.615L145.872 503.81L146.221 503.95C145.592 505.78 144.479 507.701 142.88 509.71ZM150.638 499.727L148.778 502.065L129.057 486.376L130.918 484.038L139.989 491.255L147.273 482.099L138.202 474.882L140.062 472.544L159.783 488.233L157.922 490.571L147.555 482.323L140.271 491.479L150.638 499.727ZM143.029 469.392L142.747 469.168L146.737 464.154L147.019 464.378L145.92 465.758L165.078 480.999L166.176 479.618L166.457 479.842L162.468 484.857L162.186 484.633L163.217 483.337L144.06 468.096L143.029 469.392ZM176.871 466.984C174.077 470.496 171.012 472.306 167.676 472.412C166.484 472.445 165.147 472.179 163.665 471.613C162.183 471.048 160.597 470.093 158.907 468.748C157.216 467.403 155.921 465.928 155.021 464.322C154.117 462.683 153.68 461.093 153.709 459.553C153.818 456.603 154.918 453.813 157.009 451.183C157.607 450.432 158.255 449.752 158.955 449.143C159.635 448.519 160.183 448.081 160.599 447.828L161.199 447.478L161.414 447.787C159.89 448.66 158.516 449.867 157.291 451.407C155.707 453.398 155.033 455.576 155.268 457.94C155.419 459.717 156.26 461.551 157.79 463.443C158.648 464.524 159.837 465.67 161.359 466.88C162.88 468.09 164.46 468.995 166.1 469.594C167.721 470.178 169.058 470.444 170.111 470.393C171.179 470.322 172.215 470.042 173.218 469.552C174.202 469.047 174.909 468.583 175.339 468.158C175.769 467.733 176.245 467.192 176.768 466.535C177.306 465.859 177.846 465.046 178.387 464.096C178.928 463.146 179.313 462.41 179.544 461.889L179.863 461.084L180.212 461.224C179.583 463.054 178.47 464.975 176.871 466.984ZM182.59 459.564L182.321 459.903L169.301 435.79L169.407 435.368L194.917 444.07L193.011 446.464L185.065 443.731L178.521 451.957L182.59 459.564ZM171.649 439.084L178.329 451.621L184.716 443.591L171.649 439.084ZM204.208 432.622C201.414 436.134 198.349 437.943 195.013 438.05C193.822 438.083 192.485 437.817 191.003 437.251C189.521 436.685 187.934 435.73 186.244 434.385C184.554 433.041 183.258 431.565 182.358 429.96C181.454 428.321 181.017 426.731 181.047 425.19C181.155 422.24 182.255 419.45 184.347 416.821C185.019 415.976 185.742 415.202 186.516 414.499C187.271 413.781 187.871 413.277 188.317 412.987L188.985 412.552L189.199 412.861C187.527 413.922 186.003 415.317 184.628 417.045C183.044 419.036 182.37 421.214 182.605 423.578C182.756 425.354 183.597 427.189 185.128 429.081C185.985 430.162 187.175 431.307 188.696 432.518C190.217 433.728 191.798 434.633 193.437 435.232C195.058 435.816 196.395 436.082 197.448 436.03C198.516 435.96 199.552 435.68 200.555 435.19C201.539 434.685 202.246 434.22 202.676 433.795C203.106 433.371 203.575 432.839 204.083 432.2C204.606 431.543 205.226 430.61 205.942 429.401L200.139 424.784L197.427 428.193L197.145 427.969L202.681 421.01L202.963 421.234L201.999 422.446L207.549 426.861C206.92 428.692 205.807 430.612 204.208 432.622ZM201.447 416.605C198.029 413.886 196.094 410.998 195.644 407.94C195.189 404.849 196.001 401.998 198.077 399.388C200.154 396.777 202.575 395.314 205.341 395C208.121 394.666 211.201 395.844 214.582 398.533C217.963 401.223 219.86 404.081 220.273 407.109C220.686 410.136 219.794 413.03 217.598 415.791C215.7 418.176 213.461 419.584 210.879 420.015C209.538 420.236 208.059 420.071 206.442 419.521C204.821 418.937 203.156 417.965 201.447 416.605ZM198.292 399.697C196.783 401.593 196.388 403.825 197.107 406.39C197.841 408.937 199.842 411.51 203.11 414.11C206.378 416.71 209.219 418.035 211.633 418.084C214.047 418.134 216.008 417.21 217.518 415.314C219.042 413.398 219.437 411.167 218.703 408.62C217.965 406.039 215.981 403.464 212.75 400.894C209.501 398.309 206.652 396.994 204.205 396.948C201.772 396.883 199.801 397.8 198.292 399.697Z" fill="#1F1A1A"/>
</g>
<circle cx="65" cy="93" r="14.5" fill="white" stroke="black"/>
<path d="M81.5 231C81.5 239.008 75.0081 245.5 67 245.5C58.9919 245.5 52.5 239.008 52.5 231C52.5 222.992 58.9919 216.5 67 216.5C75.0081 216.5 81.5 222.992 81.5 231Z" fill="white" stroke="black"/>
<path d="M267.5 707C267.5 715.008 261.008 721.5 253 721.5C244.992 721.5 238.5 715.008 238.5 707C238.5 698.992 244.992 692.5 253 692.5C261.008 692.5 267.5 698.992 267.5 707Z" fill="white" stroke="black"/>
<defs>
<filter id="filter0_d_1_12" x="0.890182" y="0.483398" width="265.11" height="780.017" filterUnits="userSpaceOnUse" color-interpolation-filters="sRGB">
<feFlood flood-opacity="0" result="BackgroundImageFix"/>
<feColorMatrix in="SourceAlpha" type="matrix" values="0 0 0 0 0 0 0 0 0 0 0 0 0 0 0 0 0 0 127 0" result="hardAlpha"/>
<feOffset dy="4"/>
<feGaussianBlur stdDeviation="2"/>
<feComposite in2="hardAlpha" operator="out"/>
<feColorMatrix type="matrix" values="0 0 0 0 0 0 0 0 0 0 0 0 0 0 0 0 0 0 0.25 0"/>
<feBlend mode="normal" in2="BackgroundImageFix" result="effect1_dropShadow_1_12"/>
<feBlend mode="normal" in="SourceGraphic" in2="effect1_dropShadow_1_12" result="shape"/>
</filter>
<filter id="filter1_d_1_12" x="97" y="373" width="149" height="174" filterUnits="userSpaceOnUse" color-interpolation-filters="sRGB">
<feFlood flood-opacity="0" result="BackgroundImageFix"/>
<feColorMatrix in="SourceAlpha" type="matrix" values="0 0 0 0 0 0 0 0 0 0 0 0 0 0 0 0 0 0 127 0" result="hardAlpha"/>
<feOffset dy="4"/>
<feGaussianBlur stdDeviation="2"/>
<feComposite in2="hardAlpha" operator="out"/>
<feColorMatrix type="matrix" values="0 0 0 0 0 0 0 0 0 0 0 0 0 0 0 0 0 0 0.25 0"/>
<feBlend mode="normal" in2="BackgroundImageFix" result="effect1_dropShadow_1_12"/>
<feBlend mode="normal" in="SourceGraphic" in2="effect1_dropShadow_1_12" result="shape"/>
</filter>
<filter id="filter2_d_1_12" x="111.084" y="390.801" width="117.753" height="136.741" filterUnits="userSpaceOnUse" color-interpolation-filters="sRGB">
<feFlood flood-opacity="0" result="BackgroundImageFix"/>
<feColorMatrix in="SourceAlpha" type="matrix" values="0 0 0 0 0 0 0 0 0 0 0 0 0 0 0 0 0 0 127 0" result="hardAlpha"/>
<feOffset dy="4"/>
<feGaussianBlur stdDeviation="2"/>
<feComposite in2="hardAlpha" operator="out"/>
<feColorMatrix type="matrix" values="0 0 0 0 0 0 0 0 0 0 0 0 0 0 0 0 0 0 0.25 0"/>
<feBlend mode="normal" in2="BackgroundImageFix" result="effect1_dropShadow_1_12"/>
<feBlend mode="normal" in="SourceGraphic" in2="effect1_dropShadow_1_12" result="shape"/>
</filter>
</defs>
</svg>
